<mxfile host="app.diagrams.net" modified="2023-12-05T21:10:31.749Z" agent="Mozilla/5.0 (Windows NT 10.0; Win64; x64) AppleWebKit/537.36 (KHTML, like Gecko) Chrome/117.0.0.0 Safari/537.36" version="22.1.5" etag="Cdr1ILxzcuOVz43AgVBb" type="device">
  <diagram id="yYJPi_9jR0QauBgNyr1q" name="Trang-1">
    <mxGraphModel dx="1006" dy="559" grid="1" gridSize="10" guides="1" tooltips="1" connect="1" arrows="1" fold="1" page="1" pageScale="1" pageWidth="827" pageHeight="1169" math="0" shadow="0">
      <root>
        <mxCell id="0" />
        <mxCell id="1" parent="0" />
        <mxCell id="4UKb95nFkAR7BePEVWBA-3" value="" style="edgeStyle=orthogonalEdgeStyle;rounded=0;orthogonalLoop=1;jettySize=auto;html=1;" edge="1" parent="1" source="4UKb95nFkAR7BePEVWBA-1" target="4UKb95nFkAR7BePEVWBA-2">
          <mxGeometry relative="1" as="geometry" />
        </mxCell>
        <mxCell id="4UKb95nFkAR7BePEVWBA-1" value="start" style="ellipse;whiteSpace=wrap;html=1;" vertex="1" parent="1">
          <mxGeometry x="190" y="20" width="120" height="80" as="geometry" />
        </mxCell>
        <mxCell id="4UKb95nFkAR7BePEVWBA-5" value="" style="edgeStyle=orthogonalEdgeStyle;rounded=0;orthogonalLoop=1;jettySize=auto;html=1;" edge="1" parent="1" source="4UKb95nFkAR7BePEVWBA-2" target="4UKb95nFkAR7BePEVWBA-4">
          <mxGeometry relative="1" as="geometry" />
        </mxCell>
        <mxCell id="4UKb95nFkAR7BePEVWBA-2" value="i" style="whiteSpace=wrap;html=1;" vertex="1" parent="1">
          <mxGeometry x="190" y="140" width="120" height="60" as="geometry" />
        </mxCell>
        <mxCell id="4UKb95nFkAR7BePEVWBA-7" value="" style="edgeStyle=orthogonalEdgeStyle;rounded=0;orthogonalLoop=1;jettySize=auto;html=1;" edge="1" parent="1" source="4UKb95nFkAR7BePEVWBA-4" target="4UKb95nFkAR7BePEVWBA-6">
          <mxGeometry relative="1" as="geometry" />
        </mxCell>
        <mxCell id="4UKb95nFkAR7BePEVWBA-4" value="*filePointer" style="whiteSpace=wrap;html=1;" vertex="1" parent="1">
          <mxGeometry x="190" y="260" width="120" height="60" as="geometry" />
        </mxCell>
        <mxCell id="4UKb95nFkAR7BePEVWBA-9" value="" style="edgeStyle=orthogonalEdgeStyle;rounded=0;orthogonalLoop=1;jettySize=auto;html=1;" edge="1" parent="1" source="4UKb95nFkAR7BePEVWBA-6" target="4UKb95nFkAR7BePEVWBA-8">
          <mxGeometry relative="1" as="geometry" />
        </mxCell>
        <mxCell id="4UKb95nFkAR7BePEVWBA-6" value="filePointer = fopen" style="whiteSpace=wrap;html=1;" vertex="1" parent="1">
          <mxGeometry x="190" y="380" width="120" height="60" as="geometry" />
        </mxCell>
        <mxCell id="4UKb95nFkAR7BePEVWBA-14" value="True" style="edgeStyle=orthogonalEdgeStyle;rounded=0;orthogonalLoop=1;jettySize=auto;html=1;" edge="1" parent="1" source="4UKb95nFkAR7BePEVWBA-8" target="4UKb95nFkAR7BePEVWBA-13">
          <mxGeometry relative="1" as="geometry" />
        </mxCell>
        <mxCell id="4UKb95nFkAR7BePEVWBA-22" value="" style="edgeStyle=orthogonalEdgeStyle;rounded=0;orthogonalLoop=1;jettySize=auto;html=1;" edge="1" parent="1" source="4UKb95nFkAR7BePEVWBA-8" target="4UKb95nFkAR7BePEVWBA-21">
          <mxGeometry relative="1" as="geometry" />
        </mxCell>
        <mxCell id="4UKb95nFkAR7BePEVWBA-8" value="filePointer == NULL" style="rhombus;whiteSpace=wrap;html=1;" vertex="1" parent="1">
          <mxGeometry x="155" y="505" width="190" height="80" as="geometry" />
        </mxCell>
        <mxCell id="4UKb95nFkAR7BePEVWBA-16" value="" style="edgeStyle=orthogonalEdgeStyle;rounded=0;orthogonalLoop=1;jettySize=auto;html=1;" edge="1" parent="1" source="4UKb95nFkAR7BePEVWBA-13" target="4UKb95nFkAR7BePEVWBA-15">
          <mxGeometry relative="1" as="geometry" />
        </mxCell>
        <mxCell id="4UKb95nFkAR7BePEVWBA-13" value="Khong the mo duoc file" style="shape=parallelogram;perimeter=parallelogramPerimeter;whiteSpace=wrap;html=1;fixedSize=1;" vertex="1" parent="1">
          <mxGeometry x="420" y="515" width="120" height="60" as="geometry" />
        </mxCell>
        <mxCell id="4UKb95nFkAR7BePEVWBA-15" value="End" style="ellipse;whiteSpace=wrap;html=1;" vertex="1" parent="1">
          <mxGeometry x="610" y="515" width="120" height="80" as="geometry" />
        </mxCell>
        <mxCell id="4UKb95nFkAR7BePEVWBA-26" value="" style="edgeStyle=orthogonalEdgeStyle;rounded=0;orthogonalLoop=1;jettySize=auto;html=1;" edge="1" parent="1" source="4UKb95nFkAR7BePEVWBA-21" target="4UKb95nFkAR7BePEVWBA-25">
          <mxGeometry relative="1" as="geometry" />
        </mxCell>
        <mxCell id="4UKb95nFkAR7BePEVWBA-21" value="i = 0" style="whiteSpace=wrap;html=1;" vertex="1" parent="1">
          <mxGeometry x="190" y="640" width="120" height="60" as="geometry" />
        </mxCell>
        <mxCell id="4UKb95nFkAR7BePEVWBA-28" value="True" style="edgeStyle=orthogonalEdgeStyle;rounded=0;orthogonalLoop=1;jettySize=auto;html=1;" edge="1" parent="1" source="4UKb95nFkAR7BePEVWBA-25" target="4UKb95nFkAR7BePEVWBA-27">
          <mxGeometry relative="1" as="geometry" />
        </mxCell>
        <mxCell id="4UKb95nFkAR7BePEVWBA-37" value="False" style="edgeStyle=orthogonalEdgeStyle;rounded=0;orthogonalLoop=1;jettySize=auto;html=1;" edge="1" parent="1" source="4UKb95nFkAR7BePEVWBA-25" target="4UKb95nFkAR7BePEVWBA-36">
          <mxGeometry relative="1" as="geometry" />
        </mxCell>
        <mxCell id="4UKb95nFkAR7BePEVWBA-25" value="i&amp;lt;sizeof(buffer)" style="rhombus;whiteSpace=wrap;html=1;" vertex="1" parent="1">
          <mxGeometry x="200" y="770" width="100" height="80" as="geometry" />
        </mxCell>
        <mxCell id="4UKb95nFkAR7BePEVWBA-32" value="" style="edgeStyle=orthogonalEdgeStyle;rounded=0;orthogonalLoop=1;jettySize=auto;html=1;" edge="1" parent="1" source="4UKb95nFkAR7BePEVWBA-27" target="4UKb95nFkAR7BePEVWBA-31">
          <mxGeometry relative="1" as="geometry" />
        </mxCell>
        <mxCell id="4UKb95nFkAR7BePEVWBA-27" value="fread" style="whiteSpace=wrap;html=1;" vertex="1" parent="1">
          <mxGeometry x="190" y="890" width="120" height="60" as="geometry" />
        </mxCell>
        <mxCell id="4UKb95nFkAR7BePEVWBA-34" value="" style="edgeStyle=orthogonalEdgeStyle;rounded=0;orthogonalLoop=1;jettySize=auto;html=1;" edge="1" parent="1" source="4UKb95nFkAR7BePEVWBA-31" target="4UKb95nFkAR7BePEVWBA-33">
          <mxGeometry relative="1" as="geometry" />
        </mxCell>
        <mxCell id="4UKb95nFkAR7BePEVWBA-31" value="printf" style="shape=parallelogram;perimeter=parallelogramPerimeter;whiteSpace=wrap;html=1;fixedSize=1;" vertex="1" parent="1">
          <mxGeometry x="190" y="1010" width="120" height="60" as="geometry" />
        </mxCell>
        <mxCell id="4UKb95nFkAR7BePEVWBA-35" style="edgeStyle=orthogonalEdgeStyle;rounded=0;orthogonalLoop=1;jettySize=auto;html=1;" edge="1" parent="1" source="4UKb95nFkAR7BePEVWBA-33">
          <mxGeometry relative="1" as="geometry">
            <mxPoint x="250" y="730" as="targetPoint" />
            <Array as="points">
              <mxPoint x="160" y="1160" />
              <mxPoint x="160" y="730" />
            </Array>
          </mxGeometry>
        </mxCell>
        <mxCell id="4UKb95nFkAR7BePEVWBA-33" value="i++" style="whiteSpace=wrap;html=1;" vertex="1" parent="1">
          <mxGeometry x="190" y="1130" width="120" height="60" as="geometry" />
        </mxCell>
        <mxCell id="4UKb95nFkAR7BePEVWBA-38" style="edgeStyle=orthogonalEdgeStyle;rounded=0;orthogonalLoop=1;jettySize=auto;html=1;" edge="1" parent="1" source="4UKb95nFkAR7BePEVWBA-36">
          <mxGeometry relative="1" as="geometry">
            <mxPoint x="680" y="600" as="targetPoint" />
          </mxGeometry>
        </mxCell>
        <mxCell id="4UKb95nFkAR7BePEVWBA-36" value="fclose(filePointer)" style="whiteSpace=wrap;html=1;" vertex="1" parent="1">
          <mxGeometry x="370" y="780" width="120" height="60" as="geometry" />
        </mxCell>
      </root>
    </mxGraphModel>
  </diagram>
</mxfile>
